<?xml version="1.0" encoding="UTF-8"?><svg version="1.1" width="30px" height="29px" viewBox="0 0 30.0 29.0" xmlns="http://www.w3.org/2000/svg" xmlns:xlink="http://www.w3.org/1999/xlink"><defs><clipPath id="i0"><path d="M1680,0 L1680,1050 L0,1050 L0,0 L1680,0 Z"></path></clipPath><clipPath id="i1"><path d="M14,0 C21.7319865,0 28,6.2680135 28,14 C28,21.7319865 21.7319865,28 14,28 C6.2680135,28 0,21.7319865 0,14 C0,6.2680135 6.2680135,0 14,0 Z"></path></clipPath><clipPath id="i2"><path d="M29.5,-1.5 L29.5,29.5 L-1.5,29.5 L-1.5,-1.5 L29.5,-1.5 Z M14,0 C6.2680135,0 0,6.2680135 0,14 C0,21.7319865 6.2680135,28 14,28 C21.7319865,28 28,21.7319865 28,14 C28,6.2680135 21.7319865,0 14,0 Z"></path></clipPath><clipPath id="i3"><path d="M7.89087162,0.00257856634 C4.70738837,0.552020682 2.50835369,3.24758292 2.50835369,6.8623586 C2.50835369,10.941499 5.02168959,13.2128089 8.76929646,13.2128089 C11.5674895,13.2128089 13.7104175,12.1289264 14.7910432,10.2719374 C13.6371305,12.9666581 10.8907463,14.8623586 7.68639152,14.8623586 C3.4413147,14.8623586 0,11.5353063 0,7.4311793 C0,3.3270523 3.4413147,0 7.68639152,0 C7.75476373,0 7.82292744,0.000863073496 7.89087162,0.00257856634 Z"></path></clipPath><linearGradient id="i4" x1="1.27683218px" y1="-0.953129058px" x2="0.800700937px" y2="16.2684728px" gradientUnits="userSpaceOnUse"><stop stop-color="#FEFEFE" offset="0%"></stop><stop stop-color="#9FCECD" offset="100%"></stop></linearGradient><clipPath id="i5"><path d="M12.5704605,0.0682924755 C13.8204261,-0.437690555 12.7194112,1.97258889 11.3836268,3.84414354 C10.5151015,5.06102601 9.20865826,6.06943049 8.03714488,6.77099226 C6.59041517,7.63736756 6.51837379,7.2419 6.83019965,6.88789228 C7.30974346,6.34347875 8.20639407,5.08736123 7.06675226,4.06146009 C6.44740048,3.50392203 4.3303919,3.49017576 3.22812311,4.40237494 C2.07663179,5.35530897 1.39492382,6.45387378 1.30571466,8.30804739 C1.21650549,10.162221 2.52121488,12.9149323 5.61162093,12.9149323 C8.70202699,12.9149323 11.0307868,9.75120514 11.8391639,8.9878332 C12.647541,8.22446125 13.7464605,8.03864039 13.4114484,9.41632044 C12.753566,12.1217505 10.5332494,14.7089264 6.78564251,14.7089264 C3.03803563,14.7089264 0,12.0024243 0,7.92328391 C0,3.84414354 3.21862951,1.0332483 6.96623638,1.0332483 C8.81121625,1.0332483 11.0386922,0.68834848 12.5704605,0.0682924755 Z"></path></clipPath><linearGradient id="i6" x1="12.7645673px" y1="0px" x2="4.16141881px" y2="17.3384492px" gradientUnits="userSpaceOnUse"><stop stop-color="#FFFFFF" offset="0%"></stop><stop stop-color="#EBEBEB" offset="100%"></stop></linearGradient></defs><g transform="translate(-13.0 -135.0)"><g clip-path="url(#i0)"><g transform="translate(14.0 135.5)"><g clip-path="url(#i1)"><polygon points="0,0 28,0 28,28 0,28 0,0" stroke="none" fill="#00968F"></polygon></g><g clip-path="url(#i1)"><path d="M14,28 C21.7319865,28 28,21.7319865 28,14 C28,6.2680135 21.7319865,0 14,0 C6.2680135,0 0,6.2680135 0,14 C0,21.7319865 6.2680135,28 14,28 Z" stroke="#FFFFFF" stroke-width="2" fill="none" stroke-miterlimit="5"></path></g><g clip-path="url(#i2)"><path d="M14,28 C21.7319865,28 28,21.7319865 28,14 C28,6.2680135 21.7319865,0 14,0 C6.2680135,0 0,6.2680135 0,14 C0,21.7319865 6.2680135,28 14,28 Z" stroke="#00968F" stroke-width="1" fill="none" stroke-miterlimit="5"></path></g><g transform="translate(6.173452035503015 5.999999999999998)"><g transform="translate(0.0 1.1376414034212488)"><g clip-path="url(#i3)"><polygon points="0,0 14.7910432,0 14.7910432,14.8623586 0,14.8623586 0,0" stroke="none" fill="url(#i4)"></polygon></g></g><g transform="translate(2.17985796635503 0.0)"><g clip-path="url(#i5)"><polygon points="0,-4.4408921e-16 13.473238,-4.4408921e-16 13.473238,14.7089264 0,14.7089264 0,-4.4408921e-16" stroke="none" fill="url(#i6)"></polygon></g></g></g></g></g></g></svg>