<svg xmlns="http://www.w3.org/2000/svg" width="63" height="30" viewBox="0 0 63 30" fill="none">
<path d="M4.97078 2.99869C5.01828 2.77479 5.19569 2.6009 5.42121 2.56181C6.24377 2.4192 7.07376 2.31372 7.91117 2.24536C8.87499 2.16668 9.74046 2.12734 10.5076 2.12734C11.4124 2.12734 12.268 2.23553 13.0745 2.45189C13.8809 2.66826 14.5792 3.00265 15.1693 3.45505C15.7594 3.88779 16.2216 4.45821 16.556 5.16632C16.9101 5.85476 17.0871 6.67106 17.0871 7.61521C17.0871 8.69704 16.9199 9.64119 16.5855 10.4477C16.2708 11.2344 15.8479 11.9032 15.3168 12.454C14.7858 12.9851 14.176 13.408 13.4875 13.7227C12.8188 14.0177 12.1303 14.2144 11.4222 14.3128L15.0673 22.273C15.2392 22.6483 14.9649 23.0756 14.552 23.0756H11.5881C11.3474 23.0756 11.1329 22.9235 11.0533 22.6963L8.35374 14.9914L6.31792 14.6078L4.64188 22.6249C4.58697 22.8875 4.35543 23.0756 4.08713 23.0756H1.4116C1.05127 23.0756 0.782428 22.7438 0.857198 22.3913L4.97078 2.99869ZM6.90801 11.8639H8.47176C9.04218 11.8639 9.60277 11.8147 10.1535 11.7164C10.7043 11.5983 11.1862 11.4016 11.5993 11.1263C12.032 10.8312 12.3762 10.4477 12.6319 9.97558C12.9073 9.5035 13.045 8.90358 13.045 8.1758C13.045 7.50702 12.8188 6.9366 12.3664 6.46453C11.914 5.97278 11.1862 5.72691 10.183 5.72691C9.78963 5.72691 9.41591 5.74658 9.06185 5.78592C8.72746 5.80559 8.44225 5.83509 8.20622 5.87443L6.90801 11.8639Z" fill="var(--refly-text-0, #1C1F23)"/>
<path d="M27.6224 21.6594C27.0127 22.1708 26.2259 22.6036 25.2621 22.9576C24.2982 23.3117 23.1771 23.4887 21.8985 23.4887C20.3053 23.4887 19.0464 23.0265 18.1219 22.102C17.2171 21.1578 16.7647 19.8498 16.7647 18.1779C16.7647 16.6043 17.0106 15.1881 17.5023 13.9292C17.9941 12.6507 18.6333 11.5688 19.4201 10.6837C20.2266 9.79855 21.1314 9.11994 22.1346 8.64787C23.1377 8.15613 24.1409 7.91025 25.144 7.91025C25.9505 7.91025 26.6389 8.01844 27.2094 8.23481C27.7995 8.4315 28.2814 8.71671 28.6551 9.09044C29.0288 9.4445 29.3042 9.85756 29.4812 10.3296C29.6582 10.8017 29.7468 11.3033 29.7468 11.8344C29.7468 12.6408 29.5402 13.3489 29.1272 13.9587C28.7141 14.5685 28.1338 15.0799 27.3864 15.4929C26.6586 15.8863 25.7735 16.1912 24.731 16.4076C23.6885 16.6043 22.5476 16.7026 21.3084 16.7026C21.1511 16.7026 21.0035 16.7026 20.8659 16.7026C20.7282 16.683 20.5807 16.6731 20.4233 16.6731C20.384 16.9092 20.3544 17.1255 20.3348 17.3222C20.3151 17.4993 20.3053 17.6665 20.3053 17.8238C20.3053 18.709 20.5315 19.3679 20.9839 19.8006C21.456 20.2334 22.1149 20.4497 22.9607 20.4497C23.8262 20.4497 24.6031 20.3219 25.2916 20.0662C25.98 19.8105 26.5012 19.5548 26.8553 19.299L27.6224 21.6594ZM20.9544 14.3718C21.5051 14.3718 22.0854 14.3521 22.6952 14.3128C23.3246 14.2734 23.9048 14.1849 24.4359 14.0472C24.967 13.8899 25.4096 13.6735 25.7636 13.3981C26.1177 13.1031 26.2947 12.7097 26.2947 12.2179C26.2947 11.9229 26.1865 11.6278 25.9702 11.3328C25.7538 11.0181 25.3014 10.8607 24.613 10.8607C23.7475 10.8607 22.9902 11.1951 22.3411 11.8639C21.7117 12.5326 21.2494 13.3686 20.9544 14.3718Z" fill="var(--refly-text-0, #1C1F23)"/>
<path d="M37.747 10.2288L35.5637 22.9453C35.4457 23.6731 35.2785 24.3419 35.0621 24.9516C34.8458 25.5811 34.5409 26.122 34.1475 26.5744C33.7738 27.0465 33.2919 27.4104 32.7018 27.6661C32.1117 27.9415 31.3839 28.0791 30.5184 28.0791C29.8103 28.0791 29.1219 28.0201 28.4531 27.9021C27.9348 27.8281 27.4723 27.6872 27.0655 27.4794C26.8329 27.3605 26.7471 27.0809 26.8385 26.8362L27.4809 25.1168C27.5931 24.8167 27.9308 24.6743 28.2417 24.7516C28.3908 24.7888 28.54 24.8161 28.6891 24.8336C29.0235 24.873 29.4464 24.8926 29.9578 24.8926C30.5873 24.8926 31.0692 24.6369 31.4036 24.1255C31.7576 23.6338 32.0231 22.8273 32.2002 21.7061L34.059 10.2288H32.6942C32.3336 10.2288 32.0646 9.89641 32.14 9.54371L32.547 7.6382C32.6028 7.37672 32.8338 7.18985 33.1012 7.18985H34.531L34.9146 5.21304C35.0523 4.48526 35.2293 3.85582 35.4457 3.32474C35.6621 2.77399 35.9473 2.32158 36.3013 1.96753C36.675 1.5938 37.1176 1.31842 37.629 1.1414C38.1601 0.964369 38.8092 0.875854 39.5763 0.875854C39.8911 0.875854 40.2451 0.895525 40.6385 0.934865C41.0516 0.954534 41.4548 1.00371 41.8482 1.08239C42.2416 1.1414 42.6252 1.22008 42.9989 1.31842C43.3726 1.41677 43.707 1.53479 44.002 1.67248L43.1464 4.3574C42.694 4.18038 42.2318 4.06236 41.7597 4.00335C41.2876 3.94434 40.8254 3.91483 40.373 3.91483C39.7435 3.91483 39.2813 4.1017 38.9862 4.47542C38.7109 4.84915 38.5142 5.42941 38.3962 6.2162L38.2191 7.18985H40.4822C40.8386 7.18985 41.1065 7.51481 41.0386 7.86461L40.6686 9.77012C40.6168 10.0365 40.3836 10.2288 40.1122 10.2288H37.747Z" fill="var(--refly-text-0, #1C1F23)"/>
<path d="M45.1019 18.709C44.9839 19.2794 44.9839 19.7023 45.1019 19.9777C45.2396 20.253 45.456 20.3907 45.751 20.3907C45.9912 20.3907 46.2258 20.3701 46.4548 20.329C46.8657 20.2551 47.2985 20.5498 47.2844 20.967L47.2366 22.3868C47.2301 22.5774 47.1296 22.7549 46.9568 22.8352C46.6284 22.9879 46.2069 23.1172 45.692 23.2232C45.0233 23.3609 44.3643 23.4297 43.7152 23.4297C42.8694 23.4297 42.2203 23.2723 41.7679 22.9576C41.3352 22.6232 41.1188 22.0135 41.1188 21.1283C41.1188 20.6759 41.1778 20.1547 41.2958 19.5646L44.8298 2.87175C44.8852 2.60979 45.1165 2.42239 45.3842 2.42239H47.8545C48.2148 2.42239 48.4837 2.75418 48.4089 3.10664L45.1019 18.709Z" fill="var(--refly-text-0, #1C1F23)"/>
<path d="M54.4869 16.6542C54.5246 16.9895 54.975 17.0712 55.1279 16.7704L59.2653 8.6332C59.3619 8.44307 59.5572 8.32332 59.7705 8.32332H62.3424C62.7705 8.32332 63.044 8.77969 62.8422 9.15722L56.2068 21.5709C55.6167 22.6724 55.0561 23.6854 54.5251 24.6099C54.0136 25.5344 53.4924 26.331 52.9613 26.9998C52.4302 27.6685 51.8795 28.1898 51.309 28.5635C50.7386 28.9372 50.1289 29.1241 49.4798 29.1241C48.8383 29.1241 48.3157 29.043 47.9119 28.881C47.6762 28.7863 47.5885 28.5151 47.6695 28.2744L48.3866 26.1451C48.4497 25.9575 48.6649 25.8755 48.8602 25.9081C48.9979 25.9278 49.1257 25.9376 49.2437 25.9376C49.7158 25.9376 50.1977 25.7114 50.6894 25.259C51.1812 24.8066 51.6729 24.0788 52.1647 23.0756L49.5175 8.99477C49.4519 8.64591 49.7195 8.32332 50.0745 8.32332H53.0447C53.3333 8.32332 53.5757 8.54009 53.6079 8.82681L54.4869 16.6542Z" fill="var(--refly-text-0, #1C1F23)"/>
</svg>